PathFileType	4	(X/Y/Z)	OpenSim_Sub02_EMGStiffKnee_Gyro.trc
DataRate	CameraRate	NumFrames	NumMarkers	Units	OrigDataRate	OrigDataStartFrame	OrigNumFrames
100	100	27	8	m	100	6904	7890
Frame#	Time	torso_imu_offset_imu	pelvis_imu_offset_imu	tibia_r_imu_offset_imu	femur_r_imu_offset_imu	tibia_l_imu_offset_imu	femur_l_imu_offset_imu	toes_r_imu_offset_imu	toes_l_imu_offset_imu
				X1	Y1	Z1	X2	Y2	Z2	X3	Y3	Z3	X4	Y4	Z4	X5	Y5	Z5	X6	Y6	Z6	X7	Y7	Z7	X8		Y8	Z8	

6904	69.03000000	-0.18542554	0.00594349	-0.38047073	0.42320508	-0.00563236	-0.17259154	-2.10889852	-0.43470703	-0.97116104	0.74874772	0.49786054	0.40568403	0.10446576	0.80369615	2.04150360	-0.37844877	0.57466629	-0.65085019	0.50548604	-0.16850896	0.06861797	-0.42540705	-5.58684409	1.21362528
6905	69.04000000	0.03277234	-0.03069445	-0.28816476	0.66099901	0.07996447	0.02077705	-0.67075811	-0.14268903	-1.65350124	-0.81890569	-0.75027982	-0.72545898	0.22424249	0.85552420	2.07051515	-0.34335092	0.68263412	-0.74347689	-0.36165881	-0.43372282	0.04765458	-0.42281237	-5.73047585	1.13294890
6906	69.05000000	0.22330318	-0.02712687	-0.16966683	0.77953751	0.23885749	0.27013031	0.74486898	-0.09553183	-1.82968575	-1.73776044	-0.95612660	-1.58213551	0.17485972	1.00894727	2.11854988	-0.34713450	0.74791921	-0.84883725	-0.59909904	-0.38917105	0.00216187	0.38404705	-5.64874627	1.02954345
6907	69.06000000	0.35381438	-0.01400969	-0.05136321	0.80277193	0.36547594	0.43158186	1.21260827	-0.24648645	-1.25952663	-2.10505954	-0.57463631	-2.28605476	0.35452271	1.03585605	2.14012301	-0.31835231	0.71337541	-0.95373506	0.24644061	-0.23518153	0.04281118	0.90759988	-5.39062450	0.98613712
6908	69.07000000	0.42997422	0.00183410	0.08520027	0.75309830	0.43167166	0.43064093	1.39156040	-0.53239118	-0.70023525	-1.96554857	-0.59837025	-2.89379965	0.63840529	0.99740841	2.05475459	-0.05101827	0.55357103	-1.10323853	-0.16763002	-0.24093159	0.10527459	1.47489006	-4.58636916	0.98594543
6909	69.08000000	0.47692449	0.01329988	0.24852895	0.69987371	0.44719577	0.31075118	1.91071452	-0.60358514	-0.67618198	-1.01815267	-0.49541722	-2.96904800	0.67977407	0.96611381	1.91841408	0.38996783	0.40600611	-1.32032625	-0.32845150	-0.23548418	0.12408478	2.10400693	-3.75588842	1.20967419
6910	69.09000000	0.50425058	0.00784869	0.38694092	0.64341014	0.38051756	0.16860965	1.81420212	-0.40863919	-0.80024458	-0.15834162	-0.00782584	-2.15878219	0.30417166	0.75565841	1.88863174	0.79581626	0.35784399	-1.51889574	-0.30230193	-0.27623844	0.04961902	2.25299926	-2.68713169	1.45737549
6911	69.10000000	0.52271215	-0.01945160	0.42069971	0.49002715	0.22272843	0.03543118	0.24247282	-0.24783663	-0.65632657	-0.01103018	0.03276090	-1.02380567	-0.19378668	0.33980692	1.93986574	1.06914091	0.35334622	-1.58692311	-0.10063695	-0.33210802	0.03157680	1.55863947	-1.28569253	1.82118891
6912	69.11000000	0.52905336	-0.04914005	0.37854401	0.28061896	0.05786944	-0.08633178	-1.22831613	-0.24879640	-0.40141384	-0.00822641	-0.34823463	-0.35627190	-0.16870094	-0.04755653	1.80476938	1.20464682	0.26873972	-1.52302740	-0.10249081	-0.40424861	0.08693281	1.44140457	0.01773380	2.26186394
6913	69.12000000	0.51783822	-0.12654276	0.31176709	0.15033612	-0.05926487	-0.17910702	-1.38981747	-0.20284155	-0.47213750	0.47706474	-0.45891273	-0.23135204	0.70411104	-0.17255725	1.33239027	1.25010547	0.11480006	-1.40671164	-0.20190153	-0.47146814	0.15791484	1.96254469	1.32503614	2.40584173
6914	69.13000000	0.52342052	-0.20028297	0.20807057	0.12480746	-0.11988438	-0.23518004	-1.47986838	-0.13292840	-0.89968639	1.09905651	-0.29991270	-0.36445846	1.76050507	-0.17683183	0.71868318	1.33264162	-0.05563957	-1.25216546	-0.26149521	-0.51868276	0.18768683	1.35844222	1.78848221	2.48096451
6915	69.14000000	0.52590014	-0.22185989	0.13702275	0.18198789	-0.13228478	-0.25151391	-1.59880218	-0.30024315	-1.13646137	1.25255434	-0.19672373	-0.54434538	2.67621864	-0.29917946	0.19426612	1.44309155	-0.17763151	-1.06798595	-0.31460750	-0.53522932	0.15529537	0.99155460	1.93811883	2.35913103
6916	69.15000000	0.51893989	-0.27547478	0.08726507	0.25611379	-0.12981382	-0.25373533	-1.16861918	-0.28507542	-0.96080635	0.93713212	-0.27664212	-0.70691851	3.70601755	-0.54401555	-0.22741165	1.45180450	-0.20768285	-0.91303271	-0.14955410	-0.51054598	0.11775663	0.85409051	2.18160298	1.99714533
6917	69.16000000	0.52212341	-0.33619650	0.02899045	0.34627270	-0.12662582	-0.26049545	-0.49091011	-0.22845615	-0.60897181	0.52804743	-0.42220545	-0.85605977	4.32666928	-0.77728759	-0.53011502	1.29076918	-0.20376960	-0.83662801	-0.15199283	-0.50682479	0.11678504	0.89537538	2.48229150	1.42916594
6918	69.17000000	0.51596420	-0.38316309	-0.03325580	0.46072280	-0.10851948	-0.25771321	-0.01101673	-0.20847222	-0.37146039	0.16670097	-0.47901702	-1.03080199	4.37142158	-0.92154795	-0.79378932	0.98169513	-0.18108461	-0.81684926	-0.16569645	-0.47824163	0.13652552	0.84297551	2.74276185	0.80659188
6919	69.18000000	0.50868007	-0.39077879	-0.06204245	0.57287723	-0.07222630	-0.22085050	0.34584527	-0.15626951	-0.35293772	-0.15894814	-0.43626026	-1.22966394	3.98335236	-1.01601893	-1.06014235	0.60074693	-0.12463559	-0.84748612	-0.18658257	-0.48776621	0.14115227	0.78695379	2.96522801	0.23836984
6920	69.19000000	0.51297018	-0.42147416	-0.04210767	0.62067718	-0.03867696	-0.17986321	0.59997828	-0.10957482	-0.43139943	-0.41512024	-0.36579008	-1.36483859	3.32445050	-1.18584333	-1.30595995	0.22811469	-0.02933288	-0.89730402	-0.16486541	-0.45526144	0.13542792	0.91609638	3.12684980	-0.23314600
6921	69.20000000	0.53085774	-0.45774301	-0.01299553	0.60760279	-0.04894552	-0.13852902	0.70119827	-0.11830171	-0.48368582	-0.63548043	-0.29807795	-1.38613974	2.55538971	-1.44525171	-1.51977079	-0.07459709	0.06088591	-0.94288221	-0.15276963	-0.39562666	0.13131631	1.14511068	3.29257326	-0.60258426
6922	69.21000000	0.53192178	-0.42586663	0.02273856	0.59946259	-0.06065041	-0.10252251	0.61129581	-0.12669165	-0.52127356	-0.80230646	-0.23120014	-1.28962331	1.69793731	-1.69128741	-1.71127064	-0.25397009	0.08885169	-0.98838287	-0.18719324	-0.42030111	0.11806771	1.22092541	3.47164824	-0.89054111
6923	69.22000000	0.55986839	-0.38383314	0.07963168	0.60499420	-0.02454138	-0.06181129	0.31345789	-0.14647391	-0.56658076	-0.84781839	-0.13712979	-1.13229932	0.65901961	-1.83531934	-1.92935275	-0.30486284	0.03457741	-1.01946078	-0.17938433	-0.39663701	0.09908616	1.14402901	3.63860968	-1.11600263
6924	69.23000000	0.57749543	-0.30434986	0.13449797	0.62014914	0.02082245	-0.01484167	-0.07787037	-0.17253922	-0.58521944	-0.76052371	-0.06410048	-0.95611677	-0.42043302	-1.88868157	-2.19638460	-0.21785518	-0.08220101	-1.02233806	-0.17055355	-0.39768916	0.09100268	1.05095509	3.78661089	-1.31887298
6925	69.24000000	0.58475003	-0.21914725	0.17400951	0.63759441	0.05641901	0.01944854	-0.44181314	-0.15717265	-0.58106766	-0.63253036	-0.08648366	-0.76914530	-1.20222953	-1.93760040	-2.45528166	-0.05610471	-0.24376682	-1.02144563	-0.16373604	-0.41053518	0.09560508	1.03979421	3.82027528	-1.52510805
6926	69.25000000	0.61680366	-0.15720747	0.20635167	0.66607606	0.09192802	0.05421316	-0.67191268	-0.09749271	-0.61424919	-0.54298258	-0.17321999	-0.63054027	-1.60862318	-1.99720140	-2.61324268	0.14872520	-0.40231888	-1.02269519	-0.20305021	-0.39699063	0.10404725	1.06122918	3.75792100	-1.77513766
6927	69.26000000	0.62828126	-0.12380935	0.22606875	0.70432741	0.12054935	0.09518388	-0.72908136	-0.03887159	-0.70781520	-0.44135163	-0.24601857	-0.55927123	-1.72052018	-1.93276428	-2.68942680	0.41518925	-0.50190595	-1.03108137	-0.19121371	-0.40292926	0.09346054	0.98780151	3.66563759	-2.04942011
6928	69.27000000	0.63999890	-0.09737591	0.23968602	0.74134390	0.12042886	0.12838097	-0.66018052	0.00527472	-0.80056822	-0.24059000	-0.27678449	-0.52902684	-1.51558349	-1.66736638	-2.76850390	0.73172958	-0.56111526	-1.05732457	-0.15284916	-0.39973361	0.06209118	0.73547177	3.54857135	-2.25000215
6929	69.28000000	0.64425965	-0.08744866	0.24773688	0.76667057	0.10940244	0.14482432	-0.44172908	0.03380171	-0.83739732	0.06191515	-0.26495215	-0.53919999	-0.98874514	-1.36720568	-2.85859200	1.01731435	-0.61556594	-1.08100342	-0.09910900	-0.36196064	0.01619026	0.40177955	3.43093216	-2.30432881
6930	69.29000000	0.64601902	-0.08821063	0.26947884	0.78732538	0.09954834	0.14970773	-0.09971458	0.06723483	-0.82931214	0.38602147	-0.17012368	-0.58310714	-0.40865685	-1.19119337	-2.92540146	1.14515131	-0.69561271	-1.07966260	-0.06690773	-0.32231674	-0.01237376	0.20682540	3.31521875	-2.23555174
